{"glyphs":{":":{"x_min":0,"x_max":282,"ha":282,"o":"m 67 352 l 67 512 l 215 512 l 215 352 z m 67 0 l 67 160 l 215 160 l 215 0 z"},"$":{"x_min":0,"x_max":500,"ha":500,"o":"m 284 304 l 284 101 q 313 104 325 115 q 337 126 337 151 l 337 241 q 337 268 325 283 q 312 297 284 304 z m 222 454 l 222 630 q 193 627 181 615 q 169 604 169 578 l 169 515 q 169 488 182 473 q 195 458 222 454 z m 222 2 l 213 2 q 112 2 73 39 q 33 76 33 171 l 33 237 l 168 237 l 168 159 q 168 129 180 116 q 192 104 222 101 l 222 322 q 116 345 78 381 q 40 417 40 492 l 40 558 q 40 649 81 688 q 121 726 222 730 l 222 806 l 284 806 l 284 730 q 392 728 428 695 q 465 663 465 563 l 465 512 l 334 512 l 334 572 q 334 601 323 614 q 312 626 284 630 l 284 436 q 394 408 430 371 q 466 335 466 262 l 466 170 q 466 82 423 42 q 381 3 284 2 l 284 -84 l 222 -84 z"},"?":{"x_min":0,"x_max":481,"ha":481,"o":"m 140 227 l 140 298 q 140 338 150 361 q 160 384 183 401 l 191 407 q 243 445 257 459 q 265 467 268 479 q 271 490 271 516 l 271 566 q 271 596 262 607 q 254 617 229 617 q 205 617 196 607 q 188 597 188 566 l 188 508 l 34 508 l 34 530 q 34 650 75 692 q 117 734 237 734 q 352 734 394 700 q 437 667 437 576 l 437 500 q 437 442 423 414 q 408 385 369 359 q 362 354 349 346 q 297 315 297 274 l 297 227 z m 141 0 l 141 160 l 297 160 l 297 0 z"},"<":{"x_min":0,"x_max":833,"ha":833,"o":"m 704 583 l 704 476 l 268 298 l 704 120 l 704 13 l 129 250 l 129 347 z"},"'":{"x_min":0,"x_max":172,"ha":172,"o":"m 39 702 l 133 702 l 133 429 l 39 429 z"},"=":{"x_min":0,"x_max":833,"ha":833,"o":"m 124 242 l 709 242 l 709 145 l 124 145 z m 124 452 l 709 452 l 709 355 l 124 355 z"},"a":{"x_min":0,"x_max":447,"ha":447,"o":"m 252 136 l 252 191 q 252 208 242 217 q 233 226 216 226 q 199 226 189 217 q 180 208 180 191 l 180 136 q 180 119 189 110 q 199 101 216 101 q 233 101 242 110 q 252 119 252 136 z m 260 0 l 260 41 q 243 14 218 3 q 192 -9 150 -9 q 85 -9 60 21 q 34 52 34 130 l 34 192 q 34 256 63 286 q 93 317 155 317 q 182 317 207 309 q 231 302 252 287 l 252 363 q 252 394 245 404 q 238 414 216 414 q 195 414 188 404 q 181 394 181 363 l 50 363 l 50 400 q 50 470 84 496 q 118 521 225 521 q 332 521 366 496 q 400 470 400 400 l 400 0 z"},"L":{"x_min":0,"x_max":384,"ha":384,"o":"m 53 0 l 53 725 l 222 725 l 222 130 l 382 130 l 382 0 z"},"3":{"x_min":0,"x_max":500,"ha":500,"o":"m 52 558 q 52 661 92 698 q 131 734 248 734 q 365 734 405 698 q 444 662 444 558 l 444 501 q 444 444 424 418 q 404 392 354 383 q 408 376 430 347 q 452 318 452 254 l 452 166 q 452 63 411 27 q 370 -9 248 -9 q 125 -9 85 27 q 44 63 44 166 l 44 243 l 202 243 l 202 164 q 202 134 211 124 q 220 113 246 113 q 272 113 281 123 q 289 134 289 164 l 289 261 q 289 293 276 304 q 263 314 216 314 l 156 314 l 156 433 l 212 433 q 255 433 269 445 q 283 458 283 499 l 283 560 q 283 590 275 601 q 266 611 242 611 q 218 611 209 600 q 201 590 201 560 l 201 514 l 52 514 z"},";":{"x_min":0,"x_max":282,"ha":282,"o":"m 126 0 l 67 0 l 67 160 l 215 160 l 215 -12 q 215 -86 178 -124 q 142 -161 69 -162 l 69 -81 q 100 -79 113 -63 q 127 -48 127 -16 q 127 -14 126 -8 q 126 -3 126 0 z m 67 352 l 67 512 l 215 512 l 215 352 z"},"J":{"x_min":0,"x_max":433,"ha":433,"o":"m 162 265 l 162 146 q 162 129 167 124 q 172 118 187 118 q 201 118 206 124 q 211 129 211 146 l 211 725 l 381 725 l 381 182 q 381 71 341 31 q 300 -9 194 -9 q 91 -9 52 25 q 13 59 13 154 l 13 265 z"},"V":{"x_min":0,"x_max":507,"ha":507,"o":"m 117 0 l 16 725 l 190 725 l 252 90 l 316 725 l 490 725 l 388 0 z"},"\"":{"x_min":0,"x_max":331,"ha":331,"o":"m 198 702 l 292 702 l 292 429 l 198 429 z m 39 702 l 133 702 l 133 429 l 39 429 z"},"7":{"x_min":0,"x_max":500,"ha":500,"o":"m 104 0 l 246 600 l 46 600 l 46 725 l 408 725 l 408 600 l 268 0 z"},"S":{"x_min":0,"x_max":498,"ha":498,"o":"m 197 242 l 197 172 q 197 144 208 132 q 219 120 246 120 q 275 120 286 131 q 296 143 296 174 l 296 225 q 296 249 293 260 q 290 271 283 280 q 267 300 207 313 q 179 319 164 323 q 94 343 67 379 q 41 415 41 492 l 41 559 q 41 657 79 695 q 117 734 210 734 l 260 734 q 318 734 356 724 q 394 714 415 692 q 432 675 439 648 q 446 622 446 564 l 446 508 l 296 508 l 296 553 q 296 587 287 599 q 278 610 250 610 q 223 610 214 599 q 204 589 204 560 l 204 513 q 204 460 295 437 q 321 430 336 426 q 406 406 432 371 q 458 336 458 260 l 458 162 q 458 71 415 31 q 372 -9 274 -9 l 229 -9 q 122 -9 81 28 q 41 64 41 163 l 41 242 z"},"}":{"x_min":0,"x_max":500,"ha":500,"o":"m 70 721 l 103 721 q 157 721 189 715 q 222 709 244 697 q 272 681 283 652 q 295 623 295 555 l 295 432 q 295 365 320 337 q 345 309 404 309 q 407 309 414 310 q 420 310 424 310 l 424 208 l 406 208 q 345 208 320 181 q 295 153 295 86 l 295 -37 q 295 -107 283 -135 q 272 -164 244 -179 q 221 -191 188 -197 q 156 -203 107 -203 q 101 -203 89 -203 q 77 -202 70 -202 l 70 -100 q 74 -100 82 -101 q 90 -101 93 -101 q 142 -101 159 -82 q 177 -63 177 -4 l 177 113 q 177 186 199 216 q 221 246 278 259 q 221 272 199 302 q 177 333 177 405 l 177 523 q 177 583 159 601 q 142 620 93 620 q 90 620 82 620 q 74 619 70 619 z"},"Z":{"x_min":0,"x_max":414,"ha":414,"o":"m 21 0 l 21 130 l 212 595 l 39 595 l 39 725 l 388 725 l 388 610 l 193 130 l 388 130 l 388 0 z"},"x":{"x_min":0,"x_max":410,"ha":410,"o":"m 6 0 l 84 279 l 22 512 l 171 512 l 208 299 l 247 512 l 387 512 l 326 279 l 403 0 l 251 0 l 206 230 l 160 0 z"},")":{"x_min":0,"x_max":361,"ha":361,"o":"m 120 504 q 120 567 106 590 q 91 613 53 619 l 53 733 l 77 733 q 190 733 232 678 q 275 624 275 468 l 275 256 q 275 101 232 46 q 190 -9 77 -9 l 53 -9 l 53 104 q 91 110 106 133 q 120 156 120 219 z"},"&":{"x_min":0,"x_max":560,"ha":560,"o":"m 332 165 l 231 308 q 214 308 204 293 q 194 278 194 252 l 194 189 q 194 138 206 127 q 218 116 266 116 q 309 116 321 123 q 333 130 333 151 q 333 156 333 159 q 333 163 332 165 z m 452 -9 l 422 31 q 407 11 380 1 q 352 -9 309 -9 l 229 -9 q 123 -9 82 29 q 41 66 41 164 l 41 251 q 41 332 70 371 q 98 411 158 415 l 141 438 q 107 486 95 518 q 82 549 82 580 q 82 664 122 699 q 161 734 258 734 q 374 734 413 704 q 452 674 452 588 l 452 532 l 314 532 l 314 562 q 314 598 305 609 q 297 619 272 619 q 250 619 239 610 q 228 601 228 582 q 228 573 233 561 q 238 549 248 532 l 356 358 l 349 449 l 487 449 l 487 192 l 563 77 z"},"_":{"x_min":0,"x_max":500,"ha":500,"o":"m 0 -136 l 500 -136 l 500 -236 l 0 -236 z"},"v":{"x_min":0,"x_max":419,"ha":419,"o":"m 90 0 l 13 512 l 159 512 l 207 83 l 265 512 l 405 512 l 322 0 z"},"O":{"x_min":0,"x_max":525,"ha":525,"o":"m 308 171 l 308 553 q 308 583 299 594 q 290 604 263 604 q 236 604 227 594 q 218 583 218 553 l 218 171 q 218 140 227 130 q 236 120 263 120 q 290 120 299 130 q 308 140 308 171 z m 481 195 q 481 120 473 88 q 464 56 444 34 q 422 10 389 1 q 355 -9 263 -9 q 170 -9 137 1 q 104 10 82 34 q 62 57 53 90 q 44 123 44 195 l 44 530 q 44 602 52 635 q 61 667 82 690 q 104 714 141 724 q 178 734 263 734 q 348 734 384 724 q 420 714 443 690 q 464 667 472 635 q 481 602 481 530 z"},"(":{"x_min":0,"x_max":361,"ha":361,"o":"m 243 219 q 243 157 258 134 q 272 111 311 105 l 311 -9 l 287 -9 q 174 -9 131 46 q 88 100 88 256 l 88 468 q 88 624 131 678 q 174 733 287 733 l 311 733 l 311 619 q 272 613 258 590 q 243 567 243 505 z"},"C":{"x_min":0,"x_max":488,"ha":488,"o":"m 301 480 l 301 553 q 301 584 292 594 q 284 604 259 604 q 234 604 226 594 q 218 584 218 553 l 218 171 q 218 140 226 130 q 234 120 259 120 q 284 120 292 130 q 301 140 301 171 l 301 270 l 455 270 l 455 195 q 455 122 448 89 q 440 57 422 34 q 403 10 373 1 q 343 -9 263 -9 q 170 -9 137 1 q 104 10 82 34 q 62 57 53 90 q 44 123 44 195 l 44 530 q 44 602 52 635 q 61 667 82 690 q 104 714 141 724 q 178 734 263 734 q 336 734 369 724 q 402 715 421 691 q 439 668 447 635 q 455 602 455 530 l 455 480 z"},"W":{"x_min":0,"x_max":815,"ha":815,"o":"m 520 725 l 587 122 l 632 725 l 796 725 l 711 0 l 473 0 l 407 611 l 342 0 l 104 0 l 18 725 l 182 725 l 227 122 l 294 725 z"},"A":{"x_min":0,"x_max":519,"ha":519,"o":"m 219 299 l 296 299 l 259 641 z m 15 0 l 123 725 l 393 725 l 504 0 l 331 0 l 311 178 l 204 178 l 184 0 z"},"f":{"x_min":0,"x_max":301,"ha":301,"o":"m 69 0 l 69 400 l 22 400 l 22 512 l 69 512 l 69 586 q 69 669 104 703 q 139 738 223 738 q 240 738 257 737 q 273 736 289 734 l 289 625 q 288 625 286 625 q 273 627 268 627 q 243 627 230 615 q 217 604 217 580 l 217 512 l 289 512 l 289 400 l 217 400 l 217 0 z"},"Q":{"x_min":0,"x_max":525,"ha":525,"o":"m 316 272 l 316 553 q 316 583 306 594 q 296 604 265 604 q 234 604 224 594 q 214 583 214 553 l 214 171 q 214 141 224 130 q 234 120 265 120 q 292 120 303 128 q 313 135 315 155 l 237 260 l 286 316 z m 481 195 l 481 171 q 481 133 478 112 q 474 90 466 71 l 504 17 l 446 -36 l 412 12 q 395 0 362 -4 q 329 -9 240 -9 q 124 -9 84 32 q 44 72 44 195 l 44 530 q 44 602 52 635 q 61 667 82 690 q 104 714 141 724 q 178 734 263 734 q 348 734 384 724 q 420 714 443 690 q 464 667 472 635 q 481 602 481 530 z"},"w":{"x_min":0,"x_max":713,"ha":713,"o":"m 452 512 l 505 110 l 553 512 l 696 512 l 618 0 l 411 0 l 356 409 l 302 0 l 94 0 l 16 512 l 159 512 l 207 110 l 258 512 z"},"-":{"x_min":0,"x_max":338,"ha":338,"o":"m 37 199 l 37 324 l 301 324 l 301 199 z"},"E":{"x_min":0,"x_max":414,"ha":414,"o":"m 53 0 l 53 725 l 372 725 l 372 595 l 222 595 l 222 435 l 363 435 l 363 310 l 222 310 l 222 130 l 386 130 l 386 0 z"},"s":{"x_min":0,"x_max":421,"ha":421,"o":"m 34 159 l 168 159 q 168 118 176 105 q 185 93 209 93 q 229 93 239 102 q 248 111 248 130 l 248 162 q 248 196 173 210 q 146 215 129 219 q 71 232 54 252 q 37 272 37 319 l 37 379 q 37 455 71 488 q 104 521 181 521 l 249 521 q 321 521 350 494 q 379 468 381 398 l 381 362 l 250 362 l 250 390 q 250 410 242 417 q 233 424 211 424 q 191 424 181 416 q 170 407 170 392 l 170 364 q 170 335 227 324 q 259 317 279 312 q 341 301 365 277 q 388 252 388 199 l 388 138 q 388 55 352 23 q 316 -9 220 -9 l 181 -9 q 97 -9 66 19 q 34 46 34 120 z"},">":{"x_min":0,"x_max":833,"ha":833,"o":"m 129 583 l 704 347 l 704 250 l 129 13 l 129 120 l 566 298 l 129 476 z"},"l":{"x_min":0,"x_max":245,"ha":245,"o":"m 197 0 l 48 0 l 48 738 l 197 738 z"},"8":{"x_min":0,"x_max":500,"ha":500,"o":"m 201 251 l 201 165 q 201 131 211 120 q 221 108 250 108 q 279 108 289 119 q 299 131 299 165 l 299 251 q 299 285 289 297 q 279 308 250 308 q 221 308 211 297 q 201 285 201 251 z m 203 563 l 203 479 q 203 445 212 435 q 222 424 250 424 q 278 424 287 433 q 297 442 297 469 l 297 479 l 297 563 q 297 597 288 607 q 278 618 250 618 q 222 618 213 609 q 203 599 203 573 z m 358 377 q 417 367 439 335 q 462 303 462 225 l 462 195 q 462 74 419 33 q 376 -9 250 -9 q 124 -9 80 33 q 37 75 37 195 l 37 225 q 37 303 60 335 q 83 367 141 377 q 91 387 69 417 q 48 448 48 512 l 48 534 q 48 651 89 693 q 130 734 250 734 q 369 734 410 693 q 451 652 451 534 l 451 512 q 451 448 430 417 q 408 387 358 377 z"},"\\":{"x_min":0,"x_max":273,"ha":273,"o":"m 76 734 l 312 -93 l 219 -93 l -17 734 z"},"e":{"x_min":0,"x_max":456,"ha":456,"o":"m 186 369 l 186 320 l 280 320 l 280 369 q 280 401 271 412 q 262 422 233 422 q 205 422 195 411 q 186 400 186 369 z m 34 319 q 34 437 74 479 q 114 521 228 521 q 341 521 382 479 q 422 437 422 319 l 422 219 l 186 219 l 186 155 q 186 124 195 114 q 204 104 231 104 q 258 104 267 114 q 276 125 276 155 l 276 166 l 422 166 l 422 132 q 422 51 381 21 q 339 -9 216 -9 q 112 -9 73 34 q 34 76 34 192 z"},"b":{"x_min":0,"x_max":465,"ha":465,"o":"m 197 356 l 197 155 q 197 124 204 114 q 212 104 234 104 q 255 104 263 114 q 270 124 270 155 l 270 356 q 270 387 263 397 q 255 407 234 407 q 212 407 204 397 q 197 387 197 356 z m 191 0 l 49 0 l 49 738 l 197 738 l 197 460 q 215 491 242 506 q 270 521 310 521 q 372 521 397 484 q 423 447 423 355 l 423 157 q 423 64 398 28 q 373 -9 313 -9 q 273 -9 245 8 q 217 25 191 65 z"},"%":{"x_min":0,"x_max":875,"ha":875,"o":"m 844 144 q 844 54 812 22 q 780 -9 688 -9 q 596 -9 564 22 q 532 53 532 144 l 532 301 q 532 392 564 423 q 595 454 688 454 q 781 454 812 423 q 844 391 844 301 z m 732 153 l 732 292 q 732 323 723 333 q 714 343 688 343 q 662 343 654 333 q 645 323 645 292 l 645 153 q 645 122 654 112 q 662 102 688 102 q 714 102 723 112 q 732 123 732 153 z m 229 432 l 229 572 q 229 603 220 613 q 212 623 186 623 q 160 623 152 613 q 143 603 143 572 l 143 432 q 143 401 152 391 q 160 381 186 381 q 212 381 220 391 q 229 401 229 432 z m 342 424 q 342 333 310 302 q 278 270 186 270 q 94 270 62 302 q 30 333 30 424 l 30 581 q 30 671 62 703 q 93 734 186 734 q 279 734 310 702 q 342 671 342 581 z m 219 -9 l 566 734 l 655 734 l 309 -9 z"},"m":{"x_min":0,"x_max":681,"ha":681,"o":"m 46 0 l 46 512 l 183 512 l 183 446 q 207 487 235 504 q 263 521 306 521 q 349 521 374 503 q 400 484 406 450 q 428 488 455 504 q 483 521 525 521 q 585 521 608 489 q 632 456 632 365 l 632 0 l 485 0 l 485 357 q 485 385 477 394 q 470 404 449 404 q 429 404 421 395 q 413 385 413 362 l 413 357 l 413 0 l 265 0 l 265 357 q 265 385 257 394 q 250 404 229 404 q 208 404 200 394 q 192 383 192 357 l 192 0 z"},"#":{"x_min":0,"x_max":769,"ha":769,"o":"m 346 414 l 303 295 l 426 295 l 468 414 z m 346 715 l 454 715 l 383 512 l 501 512 l 573 715 l 681 715 l 609 512 l 747 512 l 711 414 l 574 414 l 533 296 l 675 296 l 640 198 l 498 198 l 426 -5 l 318 -5 l 390 198 l 271 198 l 198 -5 l 91 -5 l 162 198 l 22 198 l 59 296 l 197 296 l 239 414 l 93 414 l 129 512 l 274 512 z"},",":{"x_min":0,"x_max":250,"ha":250,"o":"m 110 0 l 51 0 l 51 160 l 199 160 l 199 -12 q 199 -86 163 -123 q 127 -160 53 -162 l 53 -81 q 84 -79 97 -63 q 111 -48 111 -16 q 111 -14 110 -8 q 110 -3 110 0 z"},"n":{"x_min":0,"x_max":461,"ha":461,"o":"m 46 0 l 46 512 l 184 512 l 184 446 q 207 486 236 503 q 265 521 308 521 q 368 521 392 488 q 416 455 416 365 l 416 0 l 268 0 l 268 357 q 268 384 260 394 q 252 404 231 404 q 210 404 202 394 q 194 384 194 357 l 194 0 z"},"h":{"x_min":0,"x_max":463,"ha":463,"o":"m 48 0 l 48 738 l 196 738 l 196 460 q 215 491 242 506 q 270 521 310 521 q 370 521 394 488 q 418 455 418 365 l 418 0 l 270 0 l 270 357 q 270 384 262 394 q 254 404 233 404 q 212 404 204 394 q 196 384 196 357 l 196 0 z"},"z":{"x_min":0,"x_max":359,"ha":359,"o":"m 25 0 l 25 111 l 175 400 l 37 400 l 37 512 l 326 512 l 326 393 l 177 111 l 334 111 l 334 0 z"},"B":{"x_min":0,"x_max":534,"ha":534,"o":"m 220 428 l 267 428 q 298 428 309 439 q 319 450 319 480 l 319 545 q 319 575 309 586 q 298 597 267 597 l 220 597 z m 220 316 l 220 127 l 271 127 q 302 127 313 138 q 323 149 323 179 l 323 263 q 323 293 312 305 q 302 316 271 316 z m 493 151 q 493 64 452 32 q 412 0 287 0 l 53 0 l 53 725 l 279 725 q 403 725 445 692 q 486 660 486 573 l 486 510 q 486 450 459 419 q 433 389 371 378 q 433 375 463 339 q 493 303 493 233 z"},"K":{"x_min":0,"x_max":516,"ha":516,"o":"m 53 0 l 53 725 l 218 725 l 218 412 l 328 725 l 500 725 l 362 384 l 522 0 l 347 0 l 218 330 l 218 0 z"},"R":{"x_min":0,"x_max":532,"ha":532,"o":"m 263 597 l 222 597 l 222 373 l 263 373 q 296 373 307 384 q 318 395 318 425 l 318 545 q 318 575 307 586 q 296 597 263 597 z m 316 183 q 316 221 302 235 q 288 249 250 249 l 222 249 l 222 0 l 53 0 l 53 725 l 229 725 q 385 725 436 686 q 486 646 486 539 l 486 456 q 486 393 458 360 q 431 327 369 316 q 427 308 454 277 q 482 246 482 190 l 482 0 l 316 0 z"},"T":{"x_min":0,"x_max":410,"ha":410,"o":"m 120 0 l 120 595 l 6 595 l 6 725 l 403 725 l 403 595 l 289 595 l 289 0 z"},"P":{"x_min":0,"x_max":505,"ha":505,"o":"m 222 206 l 222 0 l 53 0 l 53 725 l 223 725 q 379 725 429 685 q 480 646 480 539 l 480 392 q 480 288 431 247 q 381 206 250 206 z m 310 391 l 310 545 q 310 575 300 586 q 290 597 260 597 l 222 597 l 222 339 l 260 339 q 290 339 300 350 q 310 361 310 391 z"},"|":{"x_min":0,"x_max":500,"ha":500,"o":"m 200 764 l 301 764 l 301 -236 l 200 -236 z"},"t":{"x_min":0,"x_max":317,"ha":317,"o":"m 63 400 l 18 400 l 18 512 l 63 512 l 63 648 l 212 648 l 212 512 l 296 512 l 296 400 l 212 400 l 212 161 q 212 132 225 118 q 239 105 268 105 q 275 105 279 105 q 283 105 287 106 l 287 -4 q 264 -7 244 -9 q 225 -11 208 -11 q 124 -11 94 20 q 63 51 63 146 z"},"M":{"x_min":0,"x_max":794,"ha":794,"o":"m 54 0 l 54 725 l 299 725 l 396 153 l 498 725 l 739 725 l 739 0 l 586 0 l 596 613 l 484 0 l 297 0 l 188 613 l 200 0 z"},"g":{"x_min":0,"x_max":465,"ha":465,"o":"m 416 14 q 416 -103 379 -145 q 343 -188 247 -188 q 135 -188 96 -158 q 57 -127 57 -47 l 57 -44 l 185 -44 q 185 -65 194 -74 q 203 -82 226 -82 q 251 -82 260 -72 q 268 -62 268 -31 l 268 44 q 245 20 219 10 q 194 -1 158 -1 q 93 -1 67 35 q 41 70 41 165 l 41 355 q 41 447 67 484 q 93 521 155 521 q 197 521 227 504 q 256 486 275 450 l 275 512 l 416 512 z m 268 160 l 268 356 q 268 387 260 397 q 253 407 231 407 q 209 407 201 397 q 194 387 194 356 l 194 160 q 194 129 201 119 q 209 109 231 109 q 253 109 261 119 q 268 128 268 160 z"},"j":{"x_min":0,"x_max":248,"ha":248,"o":"m 51 620 l 51 738 l 200 738 l 200 620 z m 200 512 l 200 -39 q 200 -123 171 -155 q 141 -188 68 -188 q 60 -188 31 -186 q 13 -185 3 -184 l 3 -69 q 32 -67 41 -56 q 51 -44 51 3 l 51 512 z"},"i":{"x_min":0,"x_max":241,"ha":241,"o":"m 46 620 l 46 738 l 194 738 l 194 620 z m 194 0 l 46 0 l 46 512 l 194 512 z"},"y":{"x_min":0,"x_max":419,"ha":419,"o":"m 84 0 l 17 512 l 165 512 l 211 74 l 261 512 l 404 512 l 333 36 q 312 -101 277 -145 q 242 -188 167 -188 q 149 -188 129 -185 q 109 -182 85 -175 l 85 -71 q 97 -74 107 -76 q 117 -77 124 -77 q 156 -77 174 -58 q 191 -39 194 0 z"},"@":{"x_min":0,"x_max":1000,"ha":1000,"o":"m 570 133 q 543 92 508 73 q 473 53 425 53 q 348 53 307 95 q 267 137 267 219 q 267 336 335 415 q 403 494 503 494 q 542 494 571 478 q 600 462 618 430 l 644 478 l 731 478 l 659 186 q 658 181 657 175 q 656 169 656 166 q 656 149 667 140 q 679 132 702 132 q 721 132 742 142 q 763 151 781 169 q 823 208 844 260 q 866 312 866 375 q 866 492 776 568 q 685 643 542 643 q 473 643 414 626 q 354 610 306 577 q 223 521 178 438 q 134 354 134 255 q 134 105 235 15 q 336 -74 505 -74 q 584 -74 659 -50 q 735 -26 800 19 l 840 -38 q 765 -94 681 -123 q 598 -151 507 -151 q 413 -151 334 -127 q 256 -104 195 -57 q 119 2 82 79 q 44 156 44 254 q 44 335 70 409 q 95 483 145 544 q 217 632 319 678 q 420 723 545 723 q 627 723 700 701 q 772 679 826 638 q 892 587 925 521 q 957 456 957 373 q 957 292 925 224 q 893 156 833 108 q 799 81 759 66 q 718 52 675 52 q 623 52 597 72 q 571 93 570 133 z m 594 342 q 588 381 566 402 q 544 423 509 423 q 453 423 412 362 q 371 302 371 217 q 371 172 391 148 q 411 125 448 125 q 489 125 522 156 q 556 187 568 236 z"},".":{"x_min":0,"x_max":250,"ha":250,"o":"m 51 0 l 51 160 l 199 160 l 199 0 z"},"p":{"x_min":0,"x_max":465,"ha":465,"o":"m 197 356 l 197 155 q 197 124 204 114 q 212 104 234 104 q 255 104 263 114 q 270 124 270 155 l 270 356 q 270 387 263 397 q 255 407 234 407 q 212 407 204 397 q 197 387 197 356 z m 49 -187 l 49 512 l 190 512 l 190 450 q 209 487 238 504 q 267 521 309 521 q 371 521 397 484 q 423 447 423 355 l 423 157 q 423 64 398 28 q 373 -9 313 -9 q 272 -9 244 8 q 216 25 197 61 l 197 -187 z"},"X":{"x_min":0,"x_max":493,"ha":493,"o":"m 246 326 l 185 0 l 17 0 l 109 383 l 25 725 l 189 725 l 245 428 l 306 725 l 468 725 l 384 383 l 476 0 l 307 0 z"},"*":{"x_min":0,"x_max":440,"ha":440,"o":"m 220 443 l 283 486 l 283 556 l 218 606 l 156 558 l 156 485 z m 406 569 l 406 481 l 295 481 l 364 366 l 271 316 l 220 426 l 171 316 l 75 366 l 146 481 l 35 481 l 35 569 l 146 569 l 77 684 l 169 734 l 220 623 l 270 734 l 366 684 l 295 569 z"},"Y":{"x_min":0,"x_max":461,"ha":461,"o":"m 147 0 l 147 235 l -3 725 l 168 725 l 238 397 l 303 725 l 463 725 l 316 235 l 316 0 z"},"c":{"x_min":0,"x_max":428,"ha":428,"o":"m 397 202 l 397 150 q 397 58 362 24 q 328 -9 229 -9 q 115 -9 74 33 q 34 75 34 192 l 34 319 q 34 437 75 479 q 115 521 229 521 q 328 521 362 488 q 397 455 397 362 l 397 337 l 258 337 l 258 356 q 258 387 250 397 q 243 407 222 407 q 201 407 193 397 q 186 387 186 356 l 186 155 q 186 125 193 114 q 201 104 222 104 q 243 104 250 114 q 258 125 258 155 l 258 202 z"},"!":{"x_min":0,"x_max":287,"ha":287,"o":"m 68 227 l 68 725 l 219 725 l 219 227 z m 68 0 l 68 160 l 219 160 l 219 0 z"},"/":{"x_min":0,"x_max":273,"ha":273,"o":"m -39 -93 l 197 734 l 291 734 l 54 -93 z"},"[":{"x_min":0,"x_max":361,"ha":361,"o":"m 96 0 l 96 725 l 311 725 l 311 613 l 244 613 l 244 111 l 311 111 l 311 0 z"},"6":{"x_min":0,"x_max":500,"ha":500,"o":"m 210 296 l 210 164 q 210 134 219 123 q 227 113 252 113 q 277 113 285 122 q 293 132 293 164 l 293 296 q 293 327 285 337 q 276 347 252 347 q 227 347 219 337 q 210 326 210 296 z m 44 567 q 44 665 84 699 q 124 734 244 734 q 317 734 354 726 q 390 718 411 699 q 429 683 437 660 q 444 636 444 574 l 444 538 l 294 538 l 294 568 q 294 598 286 609 q 277 619 252 619 q 227 619 219 609 q 210 598 210 568 l 210 419 q 240 443 267 453 q 294 464 328 464 q 369 464 397 451 q 426 439 443 414 q 452 400 456 369 q 460 337 460 285 l 460 195 q 460 75 418 33 q 375 -9 252 -9 q 128 -9 86 33 q 44 75 44 195 z"},"r":{"x_min":0,"x_max":388,"ha":388,"o":"m 46 0 l 46 512 l 184 512 l 184 456 q 204 490 229 506 q 254 521 292 521 q 338 521 358 497 q 377 474 377 416 l 377 303 l 254 303 l 254 357 q 254 384 247 394 q 241 404 224 404 q 207 404 200 395 q 194 385 194 357 l 194 0 z"},"2":{"x_min":0,"x_max":500,"ha":500,"o":"m 47 0 l 47 116 q 47 163 51 189 q 54 216 62 239 q 72 266 90 288 q 109 310 142 333 q 163 348 206 367 q 249 387 265 398 q 273 403 277 414 q 281 425 281 442 l 281 560 q 281 591 274 601 q 268 611 249 611 q 230 611 223 601 q 217 591 217 560 l 217 462 l 56 462 l 56 530 q 56 651 96 692 q 137 734 253 734 q 370 734 409 693 q 449 651 449 530 l 449 439 q 449 377 427 344 q 406 311 348 283 q 335 277 311 266 q 210 219 210 160 l 210 130 l 444 130 l 444 0 z"},"{":{"x_min":0,"x_max":500,"ha":500,"o":"m 431 721 l 431 619 q 427 619 419 620 q 411 620 408 620 q 359 620 342 601 q 324 583 324 522 l 324 405 q 324 333 302 302 q 280 272 223 259 q 280 246 302 216 q 324 186 324 114 l 324 -4 q 324 -64 341 -83 q 358 -101 408 -101 q 411 -101 419 -101 q 427 -100 431 -100 l 431 -202 q 424 -202 412 -203 q 400 -203 394 -203 q 345 -203 312 -197 q 280 -191 257 -179 q 229 -163 218 -135 q 206 -106 206 -37 l 206 86 q 206 153 181 181 q 156 209 97 209 q 94 209 87 208 q 81 208 77 208 l 77 310 q 81 310 87 310 q 94 309 97 309 q 156 309 181 337 q 206 366 206 433 l 206 555 q 206 625 218 653 q 229 682 257 698 q 280 710 312 716 q 345 722 394 722 q 400 722 412 722 q 424 721 431 721 z"},"9":{"x_min":0,"x_max":500,"ha":500,"o":"m 289 458 l 289 560 q 289 591 281 601 q 273 611 248 611 q 223 611 214 601 q 206 591 206 560 l 206 458 q 206 427 215 417 q 223 407 248 407 q 273 407 281 417 q 289 427 289 458 z m 456 158 q 456 60 416 25 q 376 -9 255 -9 q 175 -9 138 -1 q 101 6 79 25 q 61 41 53 64 q 45 87 45 150 l 45 222 l 202 222 l 202 157 q 202 126 211 116 q 220 106 246 106 q 272 106 281 116 q 289 125 289 157 l 289 337 q 259 312 232 302 q 205 292 172 292 q 131 292 103 305 q 74 317 57 342 q 48 356 43 389 q 39 421 39 471 l 39 530 q 39 650 81 692 q 124 734 247 734 q 371 734 413 692 q 456 650 456 530 z"}," ":{"x_min":0,"x_max":250,"ha":250,"o":""},"I":{"x_min":0,"x_max":283,"ha":283,"o":"m 225 0 l 56 0 l 56 725 l 225 725 z"},"H":{"x_min":0,"x_max":532,"ha":532,"o":"m 53 0 l 53 725 l 222 725 l 222 446 l 310 446 l 310 725 l 479 725 l 479 0 l 310 0 l 310 316 l 222 316 l 222 0 z"},"4":{"x_min":0,"x_max":500,"ha":500,"o":"m 140 273 l 276 273 l 276 634 z m 276 0 l 276 150 l 22 150 l 22 324 l 184 725 l 431 725 l 431 273 l 474 273 l 474 150 l 431 150 l 431 0 z"},"~":{"x_min":0,"x_max":833,"ha":833,"o":"m 747 392 l 747 284 q 696 250 651 233 q 606 217 562 217 q 540 217 517 221 q 495 225 472 232 q 460 236 438 244 q 331 281 275 281 q 233 281 188 262 q 143 244 87 204 l 87 312 q 139 347 187 365 q 234 382 276 382 q 333 382 418 354 l 420 353 q 429 350 447 344 q 522 317 564 317 q 605 317 649 335 q 693 353 747 392 z"},"D":{"x_min":0,"x_max":530,"ha":530,"o":"m 53 0 l 53 725 l 267 725 q 396 725 441 679 q 486 634 486 500 l 486 225 q 486 91 441 46 q 396 0 267 0 z m 312 178 l 312 546 q 312 576 303 585 q 294 595 267 595 l 222 595 l 222 129 l 267 129 q 294 129 303 139 q 312 149 312 178 z"},"^":{"x_min":0,"x_max":1000,"ha":1000,"o":"m 438 713 l 561 713 l 796 439 l 681 439 l 500 620 l 318 439 l 203 439 z"},"0":{"x_min":0,"x_max":500,"ha":500,"o":"m 208 560 l 208 164 q 208 134 217 123 q 225 113 250 113 q 275 113 283 123 q 291 133 291 164 l 291 560 q 291 591 283 601 q 275 611 250 611 q 225 611 217 600 q 208 590 208 560 z m 458 195 q 458 75 416 33 q 374 -9 250 -9 q 126 -9 84 33 q 42 75 42 195 l 42 530 q 42 650 84 692 q 126 734 250 734 q 374 734 416 692 q 458 650 458 530 z"},"F":{"x_min":0,"x_max":398,"ha":398,"o":"m 53 0 l 53 725 l 371 725 l 371 595 l 222 595 l 222 415 l 357 415 l 357 285 l 222 285 l 222 0 z"},"`":{"x_min":0,"x_max":500,"ha":500,"o":"m 107 750 l 233 750 l 329 569 l 260 569 z"},"k":{"x_min":0,"x_max":426,"ha":426,"o":"m 48 0 l 48 738 l 192 738 l 192 306 l 269 512 l 407 512 l 325 293 l 434 0 l 281 0 l 192 269 l 192 0 z"},"u":{"x_min":0,"x_max":461,"ha":461,"o":"m 416 512 l 416 0 l 277 0 l 277 65 q 255 25 226 8 q 197 -9 153 -9 q 93 -9 69 24 q 45 57 45 147 l 45 512 l 194 512 l 194 155 q 194 127 202 118 q 209 108 230 108 q 251 108 259 118 q 267 128 267 155 l 267 512 z"},"]":{"x_min":0,"x_max":361,"ha":361,"o":"m 264 725 l 264 0 l 49 0 l 49 111 l 116 111 l 116 613 l 49 613 l 49 725 z"},"U":{"x_min":0,"x_max":521,"ha":521,"o":"m 50 725 l 219 725 l 219 173 q 219 143 228 132 q 237 122 264 122 q 291 122 300 132 q 309 143 309 173 l 309 725 l 471 725 l 471 234 q 471 149 462 110 q 454 70 433 43 q 411 15 373 3 q 335 -9 260 -9 q 183 -9 146 3 q 108 15 87 43 q 67 69 58 108 q 50 146 50 234 z"},"o":{"x_min":0,"x_max":456,"ha":456,"o":"m 186 356 l 186 155 q 186 125 194 114 q 203 104 228 104 q 252 104 261 114 q 269 125 269 155 l 269 356 q 269 387 261 397 q 253 407 228 407 q 203 407 195 397 q 186 386 186 356 z m 34 319 q 34 437 74 479 q 114 521 228 521 q 341 521 382 479 q 422 437 422 319 l 422 192 q 422 75 382 33 q 342 -9 228 -9 q 114 -9 74 33 q 34 74 34 192 z"},"N":{"x_min":0,"x_max":618,"ha":618,"o":"m 53 0 l 53 725 l 291 725 l 422 152 l 412 725 l 565 725 l 565 0 l 328 0 l 195 589 l 206 0 z"},"+":{"x_min":0,"x_max":833,"ha":833,"o":"m 367 596 l 466 596 l 466 347 l 709 347 l 709 250 l 466 250 l 466 0 l 367 0 l 367 250 l 124 250 l 124 347 l 367 347 z"},"G":{"x_min":0,"x_max":521,"ha":521,"o":"m 477 394 l 477 195 q 477 123 469 90 q 460 57 440 34 q 418 10 386 1 q 354 -9 263 -9 q 170 -9 137 1 q 104 10 82 34 q 62 57 53 90 q 44 123 44 195 l 44 530 q 44 602 52 635 q 61 667 82 690 q 104 714 141 724 q 178 734 263 734 q 343 734 380 724 q 417 714 439 690 q 459 668 468 635 q 476 603 476 530 l 476 492 l 315 492 l 315 553 q 315 583 305 594 q 295 604 264 604 q 233 604 223 594 q 213 583 213 553 l 213 171 q 213 141 223 130 q 233 120 264 120 q 295 120 305 130 q 315 141 315 171 l 315 264 l 267 264 l 267 394 z"},"q":{"x_min":0,"x_max":465,"ha":465,"o":"m 269 155 l 269 356 q 269 387 261 397 q 254 407 232 407 q 210 407 202 397 q 195 387 195 356 l 195 155 q 195 124 202 114 q 209 104 231 104 q 253 104 261 114 q 269 124 269 155 z m 269 61 q 250 25 222 8 q 194 -9 153 -9 q 93 -9 67 28 q 42 65 42 157 l 42 355 q 42 447 68 484 q 94 521 156 521 q 198 521 228 504 q 257 486 276 450 l 276 512 l 417 512 l 417 -187 l 269 -187 z"},"d":{"x_min":0,"x_max":465,"ha":465,"o":"m 417 738 l 417 0 l 275 0 l 275 65 q 249 25 221 8 q 192 -9 153 -9 q 93 -9 67 28 q 42 65 42 157 l 42 355 q 42 446 68 484 q 94 521 156 521 q 196 521 224 506 q 251 491 269 460 l 269 738 z m 195 356 l 195 155 q 195 124 202 114 q 209 104 231 104 q 253 104 261 114 q 269 124 269 155 l 269 356 q 269 387 261 397 q 254 407 232 407 q 210 407 202 397 q 195 387 195 356 z"},"1":{"x_min":0,"x_max":500,"ha":500,"o":"m 222 0 l 222 606 q 197 566 170 527 q 142 488 112 451 l 21 538 q 65 586 103 633 q 141 680 174 725 l 384 725 l 384 0 z"},"5":{"x_min":0,"x_max":500,"ha":500,"o":"m 450 166 q 450 63 410 27 q 370 -9 250 -9 q 129 -9 89 27 q 49 63 49 166 l 49 225 l 203 225 l 203 164 q 203 133 211 123 q 220 113 244 113 q 269 113 277 124 q 286 135 286 164 l 286 344 q 286 375 277 385 q 268 395 242 395 q 215 395 206 385 q 197 375 197 344 l 197 335 l 56 335 l 56 725 l 422 725 l 422 600 l 204 600 l 204 467 q 227 491 253 502 q 280 513 317 513 q 394 513 422 478 q 450 442 450 316 z"}}}
